<svg width="1727" height="784" viewBox="0 0 1727 784" fill="none" xmlns="http://www.w3.org/2000/svg">
<path d="M0 47C732.144 132.514 1427.6 56.6307 1704.03 4.75027M1704.03 4.75027C1710.77 3.48501 1717.26 2.23402 1723.5 1L1704.03 4.75027Z" stroke="black"/>
<path d="M0.5 729.713C732.857 630.652 1428.51 718.557 1705.02 778.656M1705.02 778.656C1711.77 780.121 1718.26 781.57 1724.5 783L1705.02 778.656Z" stroke="black"/>
<path d="M2.5 289.488C734.857 162.123 1430.51 275.144 1707.02 352.414M1707.02 352.414C1713.77 354.299 1720.26 356.162 1726.5 358L1707.02 352.414Z" stroke="black"/>
<path d="M2.5 495.687C734.857 627.095 1430.51 510.486 1707.02 430.763M1707.02 430.763C1713.77 428.819 1720.26 426.896 1726.5 425L1707.02 430.763Z" stroke="black"/>
</svg>
