<svg width="95" height="37" viewBox="0 0 95 37" fill="none" xmlns="http://www.w3.org/2000/svg">
<path d="M0 24V0.399999H1.2V24H0ZM4.8 24V0.399999H8.4V24H4.8ZM9.6 24V0.399999H10.8V24H9.6ZM12 24V0.399999H13.2V24H12ZM14.4 24V0.399999H18V24H14.4ZM6.24 27.48H7.32L9.72 34.6L11.96 27.48H13L9.88 36.8H9.4L6.24 27.48ZM19.2188 24V0.399999H22.8188V24H19.2188ZM24.0188 24V0.399999H25.2188V24H24.0188ZM26.4188 24V0.399999H27.6188V24H26.4188ZM31.2188 24V0.399999H32.4188V24H31.2188ZM33.6188 24V0.399999H37.2188V24H33.6188ZM30.2988 34.04H27.2988L26.3788 36.76H25.3388L28.7388 27.32H28.8588L32.2988 36.76H31.2188L30.2988 34.04ZM30.0188 33.24L28.8188 29.72L27.5788 33.24H30.0188ZM38.4375 24V0.399999H42.0375V24H38.4375ZM45.6375 24V0.399999H46.8375V24H45.6375ZM48.0375 24V0.399999H49.2375V24H48.0375ZM50.4375 24V0.399999H51.6375V24H50.4375ZM52.8375 24V0.399999H56.4375V24H52.8375ZM48.0375 36.92C47.0775 36.92 46.3442 36.6267 45.8375 36.04C45.3308 35.4533 45.0775 34.6267 45.0775 33.56V27.48H46.2375V27.6C46.1575 27.6533 46.1175 27.72 46.1175 27.8C46.0908 27.8533 46.0775 27.9733 46.0775 28.16V33.56C46.0775 34.36 46.2375 34.9733 46.5575 35.4C46.8508 35.8267 47.3575 36.04 48.0775 36.04C48.7708 36.04 49.2775 35.8267 49.5975 35.4C49.9175 34.9733 50.0775 34.3467 50.0775 33.52V27.48H51.0775V33.52C51.0775 34.6667 50.8108 35.52 50.2775 36.08C49.7442 36.64 48.9975 36.92 48.0375 36.92ZM57.6562 24V0.399999H58.8563V24H57.6562ZM60.0563 24V0.399999H63.6563V24H60.0563ZM64.8563 24V0.399999H66.0563V24H64.8563ZM67.2563 24V0.399999H68.4563V24H67.2563ZM72.0563 24V0.399999H75.6563V24H72.0563ZM64.5363 27.48H65.7363V27.6C65.6829 27.6533 65.6429 27.72 65.6163 27.8C65.6163 27.8533 65.6163 27.9733 65.6163 28.16V35.88H70.0563V36.76H64.5363V27.48ZM76.875 24V0.399999H78.075V24H76.875ZM79.275 24V0.399999H80.475V24H79.275ZM81.675 24V0.399999H85.275V24H81.675ZM86.475 24V0.399999H90.075V24H86.475ZM93.675 24V0.399999H94.875V24H93.675ZM85.835 28.4H83.235V27.48H89.635V28.4H86.915V36.76H85.835V28.4Z" fill="black"/>
</svg>
